<svg width="132" height="38" viewBox="0 0 132 38" fill="none" xmlns="http://www.w3.org/2000/svg">
<path d="M54.4582 11.6687H57.3563V27L46.8981 17.2172V26.2699H44V10.9387L54.4582 20.7215V11.6687Z" fill="white"/>
<path d="M59.6471 21.4724C59.6471 20.4712 59.8781 19.5951 60.3401 18.8442C60.8161 18.0933 61.4532 17.5092 62.2512 17.092C63.0632 16.6748 63.9802 16.4663 65.0022 16.4663C66.0243 16.4663 66.9343 16.6748 67.7323 17.092C68.5443 17.5092 69.1813 18.0933 69.6433 18.8442C70.1193 19.5951 70.3573 20.4712 70.3573 21.4724C70.3573 22.4597 70.1193 23.3358 69.6433 24.1006C69.1813 24.8515 68.5443 25.4356 67.7323 25.8528C66.9343 26.2699 66.0243 26.4785 65.0022 26.4785C63.9802 26.4785 63.0632 26.2699 62.2512 25.8528C61.4532 25.4356 60.8161 24.8515 60.3401 24.1006C59.8781 23.3358 59.6471 22.4597 59.6471 21.4724ZM62.4192 21.4724C62.4192 22.0147 62.5312 22.4945 62.7552 22.9117C62.9932 23.3149 63.3082 23.6348 63.7002 23.8712C64.0922 24.0937 64.5262 24.2049 65.0022 24.2049C65.4782 24.2049 65.9123 24.0937 66.3043 23.8712C66.6963 23.6348 67.0043 23.3149 67.2283 22.9117C67.4663 22.4945 67.5853 22.0147 67.5853 21.4724C67.5853 20.9301 67.4663 20.4503 67.2283 20.0331C67.0043 19.616 66.6963 19.2961 66.3043 19.0736C65.9123 18.8511 65.4782 18.7399 65.0022 18.7399C64.5262 18.7399 64.0922 18.8511 63.7002 19.0736C63.3082 19.2961 62.9932 19.616 62.7552 20.0331C62.5312 20.4503 62.4192 20.9301 62.4192 21.4724Z" fill="white"/>
<path d="M71.159 16.6748H77.1231V18.9485H71.159V16.6748ZM72.818 13.3374H75.4431V26.2699H72.818V13.3374Z" fill="white"/>
<path d="M83.1281 26.4785C82.078 26.4785 81.161 26.2699 80.377 25.8528C79.593 25.4356 78.984 24.8585 78.55 24.1215C78.13 23.3706 77.92 22.4875 77.92 21.4724C77.92 20.4434 78.13 19.5603 78.55 18.8233C78.984 18.0724 79.593 17.4953 80.377 17.092C81.161 16.6748 82.085 16.4663 83.1491 16.4663C84.2131 16.4663 85.1161 16.6609 85.8581 17.0503C86.6141 17.4258 87.1881 17.982 87.5802 18.719C87.9722 19.4421 88.1682 20.3182 88.1682 21.3472C88.1682 21.4724 88.1612 21.6045 88.1472 21.7436C88.1472 21.8826 88.1402 21.9939 88.1262 22.0773H79.474V20.4086H85.7531L85.0181 21.3681C85.0741 21.2847 85.1231 21.1734 85.1651 21.0344C85.2211 20.8814 85.2491 20.7562 85.2491 20.6589C85.2491 20.1861 85.1581 19.7828 84.9761 19.4491C84.8081 19.1153 84.5631 18.8511 84.2411 18.6564C83.9191 18.4618 83.5411 18.3644 83.1071 18.3644C82.5751 18.3644 82.127 18.4826 81.763 18.719C81.413 18.9415 81.14 19.2822 80.944 19.7411C80.762 20.1861 80.664 20.7423 80.65 21.4098C80.65 22.0495 80.741 22.5918 80.923 23.0368C81.119 23.4818 81.406 23.8225 81.784 24.0589C82.162 24.2953 82.6171 24.4135 83.1491 24.4135C83.7511 24.4135 84.2621 24.3022 84.6821 24.0798C85.1161 23.8434 85.4731 23.4957 85.7531 23.0368L88.1262 23.7669C87.6222 24.6708 86.9501 25.3521 86.1101 25.811C85.2841 26.256 84.2901 26.4785 83.1281 26.4785Z" fill="white"/>
<path d="M97.5068 10H100.237V26.2699H97.5068V10ZM89.5686 21.4724C89.5686 20.4016 89.7856 19.4977 90.2196 18.7607C90.6537 18.0098 91.2277 17.4397 91.9417 17.0503C92.6557 16.6609 93.4117 16.4663 94.2097 16.4663C95.0217 16.4663 95.7358 16.6679 96.3518 17.0712C96.9818 17.4744 97.4718 18.0515 97.8218 18.8025C98.1858 19.5395 98.3678 20.4294 98.3678 21.4724C98.3678 22.5014 98.1858 23.3914 97.8218 24.1423C97.4718 24.8933 96.9818 25.4703 96.3518 25.8736C95.7358 26.2769 95.0217 26.4785 94.2097 26.4785C93.4117 26.4785 92.6557 26.2838 91.9417 25.8945C91.2277 25.5051 90.6537 24.935 90.2196 24.184C89.7856 23.4331 89.5686 22.5292 89.5686 21.4724ZM92.3827 21.4724C92.3827 22.0425 92.5017 22.5362 92.7397 22.9534C92.9777 23.3706 93.2997 23.6904 93.7057 23.9129C94.1117 24.1354 94.5457 24.2466 95.0077 24.2466C95.4138 24.2466 95.8058 24.1423 96.1838 23.9337C96.5758 23.7112 96.8908 23.3914 97.1288 22.9742C97.3808 22.5571 97.5068 22.0564 97.5068 21.4724C97.5068 20.8883 97.3808 20.3877 97.1288 19.9706C96.8908 19.5534 96.5758 19.2405 96.1838 19.0319C95.8058 18.8094 95.4138 18.6982 95.0077 18.6982C94.5457 18.6982 94.1117 18.8094 93.7057 19.0319C93.2997 19.2544 92.9777 19.5742 92.7397 19.9914C92.5017 20.4086 92.3827 20.9022 92.3827 21.4724Z" fill="white"/>
<path d="M104.785 23.2871C104.785 23.5652 104.855 23.8086 104.995 24.0172C105.135 24.2119 105.324 24.3648 105.562 24.4761C105.814 24.5734 106.087 24.6221 106.381 24.6221C106.801 24.6221 107.179 24.5386 107.515 24.3718C107.851 24.191 108.124 23.9407 108.334 23.6209C108.544 23.2871 108.649 22.8908 108.649 22.4319L108.985 23.6834C108.985 24.2953 108.81 24.8098 108.46 25.227C108.124 25.6442 107.683 25.9571 107.137 26.1656C106.605 26.3742 106.045 26.4785 105.457 26.4785C104.855 26.4785 104.295 26.3603 103.777 26.1239C103.259 25.8875 102.839 25.5468 102.517 25.1018C102.209 24.6429 102.055 24.0867 102.055 23.4331C102.055 22.5014 102.384 21.7644 103.042 21.2221C103.7 20.6798 104.631 20.4086 105.835 20.4086C106.451 20.4086 106.99 20.4712 107.452 20.5963C107.928 20.7215 108.327 20.8744 108.649 21.0552C108.971 21.236 109.202 21.4098 109.342 21.5767V22.8282C108.964 22.5501 108.537 22.3415 108.061 22.2025C107.599 22.0634 107.109 21.9939 106.591 21.9939C106.171 21.9939 105.828 22.0495 105.562 22.1607C105.296 22.2581 105.1 22.4041 104.974 22.5988C104.848 22.7795 104.785 23.009 104.785 23.2871ZM103.735 19.3865L102.727 17.5509C103.231 17.2867 103.847 17.0364 104.575 16.8C105.303 16.5497 106.115 16.4245 107.011 16.4245C107.837 16.4245 108.572 16.5427 109.216 16.7791C109.86 17.0155 110.364 17.3632 110.728 17.8221C111.092 18.2671 111.274 18.8164 111.274 19.4699V26.2699H108.649V20.0331C108.649 19.7689 108.607 19.5464 108.523 19.3656C108.439 19.171 108.306 19.011 108.124 18.8859C107.956 18.7607 107.753 18.6703 107.515 18.6147C107.277 18.5591 107.011 18.5313 106.717 18.5313C106.269 18.5313 105.842 18.58 105.436 18.6773C105.03 18.7746 104.68 18.8928 104.386 19.0319C104.092 19.171 103.875 19.2892 103.735 19.3865Z" fill="white"/>
<path d="M114.287 22.9534C114.693 23.3288 115.071 23.6348 115.421 23.8712C115.771 24.0937 116.1 24.2605 116.408 24.3718C116.73 24.483 117.031 24.5387 117.311 24.5387C117.675 24.5387 117.955 24.4622 118.151 24.3092C118.347 24.1423 118.445 23.9198 118.445 23.6417C118.445 23.3914 118.361 23.1828 118.193 23.0159C118.039 22.8352 117.808 22.6753 117.5 22.5362C117.192 22.3971 116.8 22.2511 116.324 22.0982C115.876 21.9313 115.442 21.7366 115.022 21.5141C114.602 21.2777 114.252 20.9718 113.972 20.5963C113.706 20.207 113.573 19.7133 113.573 19.1153C113.573 18.5452 113.727 18.0654 114.035 17.6761C114.343 17.2728 114.756 16.9738 115.274 16.7791C115.806 16.5706 116.394 16.4663 117.038 16.4663C117.584 16.4663 118.095 16.5358 118.571 16.6748C119.047 16.8139 119.488 17.0016 119.894 17.238C120.3 17.4605 120.657 17.7247 120.965 18.0307L119.768 19.6994C119.418 19.3239 118.998 19.018 118.508 18.7816C118.032 18.5452 117.563 18.427 117.101 18.427C116.793 18.427 116.548 18.4896 116.366 18.6147C116.198 18.726 116.114 18.8998 116.114 19.1362C116.114 19.3448 116.198 19.5325 116.366 19.6994C116.548 19.8524 116.8 19.9914 117.122 20.1166C117.458 20.2417 117.836 20.3947 118.256 20.5755C118.774 20.7701 119.25 20.9926 119.684 21.2429C120.132 21.4793 120.489 21.7783 120.755 22.1399C121.021 22.5014 121.154 22.9742 121.154 23.5583C121.154 24.5178 120.839 25.2687 120.209 25.811C119.579 26.3395 118.711 26.6037 117.605 26.6037C116.919 26.6037 116.289 26.5133 115.715 26.3325C115.155 26.1517 114.644 25.9153 114.182 25.6233C113.734 25.3174 113.328 24.9906 112.964 24.6429L114.287 22.9534Z" fill="white"/>
<path d="M125.763 10V26.2699H123.033V10H125.763ZM129.27 20.4294C129.27 19.7898 129.144 19.3031 128.892 18.9693C128.654 18.6356 128.248 18.4687 127.674 18.4687C127.296 18.4687 126.96 18.5521 126.666 18.719C126.372 18.872 126.148 19.0945 125.994 19.3865C125.84 19.6785 125.763 20.0262 125.763 20.4294H125.217C125.217 19.6646 125.343 18.9763 125.595 18.3644C125.861 17.7526 126.253 17.2658 126.771 16.9043C127.289 16.5427 127.926 16.362 128.682 16.362C129.438 16.362 130.061 16.501 130.551 16.7791C131.041 17.0573 131.405 17.4744 131.643 18.0307C131.881 18.573 132 19.2405 132 20.0331V26.2699H129.27V20.4294Z" fill="white"/>
<g clip-path="url(#clip0_9_503)">
<path d="M36.8308 0H1.16923C0.523482 0 0 0.523482 0 1.16923V36.8308C0 37.4765 0.523482 38 1.16923 38H36.8308C37.4765 38 38 37.4765 38 36.8308V1.16923C38 0.523482 37.4765 0 36.8308 0Z" fill="#F8F8F8"/>
<path d="M8.41131 32.5265C8.01427 32.5265 7.72988 32.4409 7.55818 32.269C7.38651 32.0866 7.30066 31.7487 7.30066 31.255C7.30066 30.9223 7.33284 30.5198 7.39724 30.0477C7.4616 29.5757 7.57429 28.862 7.73526 27.9069C7.75672 27.7782 7.84257 27.2577 7.99278 26.3456C8.14303 25.4227 8.27717 24.457 8.3952 23.4482C8.50251 22.5898 8.55618 21.9459 8.55618 21.5167C8.55618 21.0338 8.3791 20.7923 8.025 20.7923C7.75672 20.7923 7.41869 20.9372 7.01092 21.2269C6.61388 21.5059 6.18463 21.9566 5.72319 22.579C5.57297 22.7829 5.40665 22.8849 5.22422 22.8849C5.07398 22.8849 4.93984 22.8151 4.8218 22.6756C4.7145 22.5254 4.66083 22.3591 4.66083 22.1766C4.66083 21.9942 4.69304 21.8225 4.75741 21.6615C4.8218 21.4899 4.93984 21.2859 5.11154 21.0499C5.63734 20.3309 6.22219 19.7782 6.86606 19.3919C7.50989 18.9949 8.18594 18.7964 8.8942 18.7964C9.4844 18.7964 9.92435 18.9788 10.2141 19.3436C10.5146 19.7085 10.6648 20.2397 10.6648 20.9372C10.6648 21.5596 10.5789 22.461 10.4072 23.6414C10.9438 22.0532 11.6252 20.8513 12.4515 20.0358C13.2778 19.2095 14.2489 18.7964 15.365 18.7964C16.2449 18.7964 16.9048 19.0486 17.3448 19.5529C17.7955 20.0465 18.0209 20.7119 18.0209 21.5489C18.0209 22.021 17.9511 22.5951 17.8116 23.2712L16.8297 27.8748C16.7224 28.4113 16.6688 28.8727 16.6688 29.2591C16.6688 29.7098 16.7707 30.0477 16.9746 30.2731C17.1892 30.4985 17.4843 30.611 17.8599 30.611C18.214 30.611 18.5574 30.4932 18.8901 30.257C19.2334 30.0209 19.6359 29.6292 20.0973 29.082C20.2261 28.9317 20.3709 28.8566 20.5319 28.8566C20.6714 28.8566 20.7787 28.921 20.8538 29.0498C20.9397 29.1786 20.9826 29.3556 20.9826 29.5809C20.9826 29.9995 20.8807 30.3322 20.6768 30.5789C20.1188 31.255 19.5661 31.7487 19.0188 32.0597C18.4715 32.371 17.8975 32.5265 17.2965 32.5265C16.3844 32.5265 15.6708 32.2585 15.1557 31.7218C14.6406 31.1746 14.3831 30.4447 14.3831 29.5327C14.3831 29.1786 14.4099 28.7923 14.4635 28.3737C14.5279 27.9552 14.6299 27.4241 14.7694 26.7802L15.4132 23.8345C15.4347 23.738 15.4723 23.5663 15.5259 23.3195C15.5796 23.0726 15.6225 22.842 15.6547 22.6273C15.6869 22.402 15.703 22.182 15.703 21.9674C15.703 21.624 15.6064 21.3503 15.4132 21.1465C15.2201 20.9426 14.9464 20.8406 14.5923 20.8406C13.9485 20.8406 13.3046 21.184 12.6608 21.8708C12.0169 22.5576 11.4213 23.6682 10.8741 25.2027C10.3268 26.7265 9.89755 28.6796 9.58633 31.0618C9.51124 31.6093 9.39855 31.9901 9.2483 32.2047C9.10882 32.4192 8.82981 32.5265 8.41131 32.5265Z" fill="#1E1E1E"/>
</g>
<defs>
<clipPath id="clip0_9_503">
<rect width="38" height="38" fill="white"/>
</clipPath>
</defs>
</svg>
